<svg width="8" height="7" viewBox="0 0 8 7" fill="none" xmlns="http://www.w3.org/2000/svg">
<path d="M5.32926 0.230774H7.24796C7.31156 0.230774 7.37257 0.253737 7.41755 0.29461C7.46252 0.335483 7.48779 0.390919 7.48779 0.448723V2.19231C7.48788 2.23548 7.47386 2.27769 7.44751 2.3136C7.42116 2.34952 7.38367 2.37751 7.3398 2.39404C7.29592 2.41057 7.24763 2.41488 7.20105 2.40644C7.15447 2.398 7.11169 2.37718 7.07815 2.34662L6.28861 1.6287L0.702313 6.70559L0.362703 6.39698L5.94948 1.32052L5.15945 0.603031C5.12582 0.572549 5.10291 0.533679 5.09362 0.49135C5.08433 0.44902 5.08908 0.405138 5.10727 0.365265C5.12546 0.325392 5.15627 0.291324 5.19579 0.267381C5.23531 0.243438 5.28176 0.230697 5.32926 0.230774Z" fill="#3CBC49"/>
</svg>
