<svg width="52" height="52" viewBox="0 0 52 52" fill="none" xmlns="http://www.w3.org/2000/svg">
<path d="M29.707 32.5364H31.829V36.073H29.707V32.5364Z" fill="black"/>
<path d="M0 43.8535H58V45.9755H0V43.8535Z" fill="black"/>
<path d="M6.36572 48.8048H51.634V51.6341H6.36572V48.8048Z" fill="black"/>
<path d="M10.6099 17.6829H47.3904V19.8048H10.6099V17.6829Z" fill="black"/>
<path d="M7.78027 39.5108V41.7318H10.9236C11.5311 41.7318 12.0242 41.2323 12.0242 40.6169V23.7493C12.0242 23.1338 11.5311 22.6343 10.9236 22.6343H7.78027V24.8553H9.83179V39.5017H7.78027V39.5108Z" fill="black"/>
<path d="M18.3816 24.8564V22.6343H15.2383C14.9477 22.6343 14.666 22.7503 14.4635 22.9555C14.2609 23.1608 14.1465 23.4464 14.1465 23.7409V40.6163C14.1465 41.2321 14.6396 41.7318 15.2471 41.7318H18.3904V39.5098H16.3389V24.8566L18.3816 24.8564Z" fill="black"/>
<path d="M39.6187 39.5108V41.7318H42.762C43.3695 41.7318 43.8538 41.2323 43.8538 40.6169V23.7493C43.8538 23.1338 43.3607 22.6343 42.7532 22.6343H39.6099V24.8553H41.6614V39.5017H39.6187V39.5108Z" fill="black"/>
<path d="M50.2107 24.8564V22.6343H47.0674C46.7768 22.6343 46.4951 22.7503 46.2926 22.9555C46.09 23.1608 45.9756 23.4464 45.9756 23.7409V40.6163C45.9756 41.2321 46.4687 41.7318 47.0762 41.7318H50.2195V39.5098H48.168V24.8566L50.2107 24.8564Z" fill="black"/>
<path d="M29.0004 2.4465L54.6613 19.0976L55.8782 17.2265L29.6085 0.181287C29.2417 -0.060429 28.7675 -0.060429 28.3917 0.181287L2.12207 17.2265L3.33892 19.0976L29.0004 2.4465Z" fill="black"/>
<path d="M33.5631 26.1705H23.3413V41.0242H34.6584V26.1705H33.5631ZM32.4935 38.6962H25.4891V28.4896H32.4935V38.6962Z" fill="black"/>
</svg>
