<svg width="29" height="24" viewBox="0 0 27 24" fill="none" xmlns="http://www.w3.org/2000/svg">
<path d="M17.9333 10.9997C16.886 10.9115 16.2169 10.1807 15.7946 9.38114C17.057 8.75525 17.9333 7.46555 17.9333 5.96251C17.9333 3.84857 16.2195 2.13309 14.1047 2.13309C11.9899 2.13309 10.2762 3.84769 10.2762 5.96251C10.2762 7.46555 11.1524 8.75525 12.4148 9.38114C11.9925 10.1807 11.3243 10.9115 10.2762 10.9997C7.85808 11.1998 7.05235 14.2235 7.05235 16.6407H14.1047H21.1571C21.1571 14.2235 20.3513 11.1998 17.9333 10.9997Z" fill="black" fill-opacity="0.7"/>
<path d="M8.15604 5.96243C8.15604 4.27603 8.86833 2.75978 9.99935 1.67636C9.29764 0.820381 8.24596 0.263245 7.05235 0.263245C4.93841 0.263245 3.22381 1.97697 3.22381 4.09267C3.22381 5.5957 4.10006 6.8854 5.36243 7.5113C4.94017 8.31086 4.27196 9.04078 3.22381 9.12893C0.805731 9.33081 0 12.3527 0 14.7708H5.07946C5.50701 11.8291 6.94128 9.74513 9.04817 9.09015C8.47428 8.17158 8.15604 7.09521 8.15604 5.96243Z" fill="black" fill-opacity="0.7"/>
<path d="M24.9856 9.12893C23.9383 9.04078 23.2692 8.31086 22.847 7.5113C24.1093 6.8854 24.9856 5.5957 24.9856 4.09267C24.9856 1.97785 23.2719 0.263245 21.1571 0.263245C19.9634 0.263245 18.9118 0.820381 18.2092 1.67636C19.3402 2.75978 20.0525 4.27603 20.0525 5.96243C20.0525 7.09521 19.7342 8.17158 19.1612 9.09015C21.2681 9.74513 22.7024 11.8291 23.13 14.7708H28.2094C28.2094 12.3527 27.4037 9.32992 24.9856 9.12893Z" fill="black" fill-opacity="0.7"/>
</svg>
