<svg width="37" height="39" viewBox="0 0 37 39" fill="none" xmlns="http://www.w3.org/2000/svg">
<path d="M5.688 38.584C3.81067 35.4693 2.552 32.2053 1.912 28.792C1.272 25.336 1.208 21.9227 1.72 18.552C2.232 15.1813 3.32 11.96 4.984 8.88799C6.69067 5.816 8.952 3.064 11.768 0.631996L15.672 2.99999C16.3547 3.46933 16.6533 4.04533 16.568 4.728C16.4827 5.368 16.248 5.90133 15.864 6.328C14.84 7.60799 13.9227 9.208 13.112 11.128C12.344 13.0053 11.832 15.0533 11.576 17.272C11.32 19.4907 11.4053 21.7947 11.832 24.184C12.2587 26.5733 13.1547 28.92 14.52 31.224C15.1173 32.2053 15.288 33.08 15.032 33.848C14.776 34.616 14.2213 35.1707 13.368 35.512L5.688 38.584ZM25.592 38.584C23.7147 35.4693 22.456 32.2053 21.816 28.792C21.176 25.336 21.112 21.9227 21.624 18.552C22.136 15.1813 23.224 11.96 24.888 8.88799C26.5947 5.816 28.856 3.064 31.672 0.631996L35.576 2.99999C36.2587 3.46933 36.5573 4.04533 36.472 4.728C36.3867 5.368 36.152 5.90133 35.768 6.328C34.744 7.60799 33.8267 9.208 33.016 11.128C32.248 13.0053 31.736 15.0533 31.48 17.272C31.224 19.4907 31.3093 21.7947 31.736 24.184C32.1627 26.5733 33.0587 28.92 34.424 31.224C35.0213 32.2053 35.192 33.08 34.936 33.848C34.68 34.616 34.1253 35.1707 33.272 35.512L25.592 38.584Z" fill="black" fill-opacity="0.7"/>
</svg>
