<svg width="48" height="42" viewBox="0 0 48 42" fill="none" xmlns="http://www.w3.org/2000/svg">
<path fill-rule="evenodd" clip-rule="evenodd" d="M32.442 30.2226C31.9153 29.4603 31.968 28.4496 32.5715 27.7461C32.8305 27.4455 33.107 27.1601 33.4011 26.8944C34.1056 26.2562 35.1612 26.1843 35.9469 26.7202L36.0632 26.7986C36.4144 26.6221 36.7787 26.474 37.1518 26.3499L37.1979 26.1059C37.3669 25.1976 38.1196 24.5246 39.0458 24.4461C39.3092 24.4243 39.5747 24.4134 39.8403 24.4134C40.1059 24.4134 40.3714 24.4243 40.6348 24.4461C40.9925 24.4766 41.3261 24.5964 41.6092 24.7837V21.5796H36.86V22.3681C36.86 23.4725 35.9536 24.3721 34.8409 24.3721H32.1634C31.0507 24.3721 30.1443 23.4725 30.1443 22.3681V21.5796L13.2122 21.584V22.3725C13.2122 23.4769 12.3058 24.3765 11.1931 24.3765H8.51563C7.40292 24.3765 6.49651 23.4769 6.49651 22.3725V21.584H1.74727V34.3589C1.74727 35.1801 2.44299 35.8532 3.29231 35.8532H30.9475C30.5788 35.509 30.344 35.032 30.3089 34.4983C30.2957 34.2979 30.2891 34.0954 30.2891 33.895C30.2891 33.6946 30.2957 33.492 30.3089 33.2916C30.3681 32.355 31.055 31.5883 31.9834 31.4162L32.0624 31.401C32.1853 31.0307 32.3368 30.6691 32.5145 30.3206L32.442 30.2226ZM39.838 25.7944C40.0663 25.7944 40.2923 25.8031 40.5183 25.8227C40.8212 25.8467 41.0604 26.0623 41.1175 26.3607L41.2426 27.0359C41.2909 27.293 41.4708 27.4868 41.7254 27.5522C42.2938 27.7025 42.8316 27.9246 43.3275 28.2122C43.5536 28.3429 43.8213 28.332 44.0364 28.1838L44.517 27.8571C44.7738 27.6807 45.1096 27.7046 45.3423 27.9137C45.5947 28.1425 45.8317 28.3842 46.0511 28.6413C46.2487 28.8722 46.2662 29.1945 46.0928 29.4428L45.7724 29.9068C45.6232 30.1224 45.6122 30.386 45.7439 30.6103C46.0314 31.1026 46.2574 31.6362 46.4089 32.2004C46.4769 32.4531 46.6722 32.6317 46.929 32.6796L47.4426 32.7733C47.7454 32.8299 47.9649 33.0739 47.9846 33.381C47.9956 33.5509 48 33.7229 48 33.8972C48 34.0715 47.9956 34.2435 47.9846 34.4134C47.9649 34.7206 47.7454 34.9645 47.4426 35.0211L46.929 35.1148C46.67 35.1627 46.4747 35.3413 46.4089 35.594C46.2574 36.1581 46.0336 36.6896 45.7439 37.1841C45.6122 37.4084 45.6232 37.6742 45.7724 37.8876L46.0928 38.3516C46.2662 38.6021 46.2487 38.9222 46.0511 39.1531C45.8295 39.4102 45.5924 39.6541 45.3423 39.8807C45.1118 40.0898 44.776 40.1137 44.517 39.9373L44.0386 39.6106C43.8213 39.4624 43.5558 39.4516 43.3297 39.5822C42.8337 39.8676 42.2961 40.0919 41.7276 40.2422C41.473 40.3098 41.2931 40.5036 41.2448 40.7585L41.1197 41.4337C41.0648 41.7299 40.8234 41.9455 40.5205 41.9717C40.2967 41.9913 40.0706 42 39.8402 42C39.612 42 39.3859 41.9913 39.1621 41.9717C38.8592 41.9477 38.62 41.7321 38.5629 41.4337L38.4378 40.7585C38.3896 40.5014 38.2096 40.3076 37.955 40.2422C37.3866 40.0919 36.8511 39.8698 36.3529 39.5822C36.1268 39.4516 35.8591 39.4624 35.644 39.6106L35.1634 39.9373C34.9066 40.1137 34.5708 40.0898 34.3382 39.8807C34.0858 39.6519 33.8488 39.4102 33.6293 39.1531C33.4318 38.9222 33.4142 38.5999 33.5876 38.3516L33.908 37.8876C34.0573 37.672 34.0682 37.4084 33.9366 37.1841C33.6491 36.6918 33.423 36.1582 33.2716 35.594C33.2035 35.3435 33.0082 35.1627 32.7514 35.1148L32.2379 35.0211C31.935 34.9645 31.7155 34.7205 31.6958 34.4134C31.6848 34.2435 31.6804 34.0715 31.6804 33.8972C31.6804 33.7251 31.6848 33.5509 31.6958 33.381C31.7156 33.0739 31.935 32.8299 32.2379 32.7733L32.7514 32.6796C33.0104 32.6317 33.2057 32.4531 33.2716 32.2004C33.423 31.6363 33.6469 31.1026 33.9366 30.6103C34.0682 30.386 34.0573 30.1202 33.908 29.9068L33.5876 29.4428C33.4142 29.1945 33.4318 28.8722 33.6293 28.6413C33.851 28.3842 34.088 28.1403 34.3382 27.9137C34.5686 27.7046 34.9044 27.6807 35.1634 27.8571L35.644 28.1838C35.8613 28.332 36.1269 28.3429 36.3529 28.2122C36.8489 27.9268 37.3866 27.7025 37.955 27.5522C38.2096 27.4847 38.3896 27.2908 38.4378 27.0359L38.5629 26.3607C38.6178 26.0645 38.8592 25.8489 39.1621 25.8227C39.3837 25.8031 39.6098 25.7944 39.838 25.7944ZM41.4686 31.8127C41.743 32.0763 41.7474 32.5119 41.4818 32.7842C41.2162 33.0565 40.7773 33.063 40.503 32.7973C40.4284 32.7254 40.3274 32.6666 40.2155 32.623L40.2133 32.6208V32.623C40.1035 32.5816 39.9828 32.5555 39.8665 32.549H39.8402C39.8248 32.549 39.8095 32.549 39.7941 32.5468C39.77 32.5468 39.7458 32.549 39.7217 32.5511C39.6032 32.5642 39.5 32.6012 39.4342 32.6688C39.4034 32.6993 39.3793 32.7385 39.3595 32.7864C39.3398 32.8365 39.3376 32.8822 39.3552 32.9171C39.3859 32.9802 39.4627 33.0478 39.59 33.1109C39.748 33.1894 39.9784 33.2503 40.2067 33.3092C40.4394 33.3701 40.6698 33.429 40.8783 33.5139C40.8914 33.5204 40.9068 33.5248 40.92 33.5335C41.5828 33.8167 41.8812 34.3155 41.8988 34.8513C41.9098 35.1802 41.8044 35.5113 41.6047 35.7966C41.4226 36.058 41.1592 36.2867 40.8388 36.4414C40.7422 36.4871 40.6412 36.5285 40.5337 36.5612V36.6069C40.5337 36.9881 40.2221 37.2952 39.8402 37.2952C39.4561 37.2952 39.1467 36.9859 39.1467 36.6069V36.5655C38.7955 36.4653 38.429 36.2889 38.0581 36.0123C37.753 35.7857 37.6916 35.3544 37.9198 35.0516C38.1481 34.7489 38.5826 34.6879 38.8877 34.9144C39.2367 35.1736 39.5549 35.2825 39.8182 35.2891H39.8665C40.0048 35.2869 40.1277 35.2564 40.2308 35.2063C40.3362 35.1562 40.4152 35.0887 40.4656 35.0168C40.4986 34.9689 40.5161 34.9253 40.5161 34.8948C40.5161 34.873 40.4766 34.8382 40.3866 34.8012L40.3581 34.7903C40.2133 34.7315 40.0377 34.6857 39.8599 34.64C39.5592 34.5616 39.252 34.481 38.9689 34.3394C38.5519 34.1325 38.2644 33.8406 38.1042 33.5051C37.922 33.124 37.9132 32.7079 38.0713 32.3006C38.1612 32.0675 38.2885 31.8715 38.4444 31.7146C38.6463 31.5077 38.8877 31.364 39.151 31.279V31.1875C39.151 30.8085 39.4627 30.4992 39.8446 30.4992C40.2264 30.4992 40.5381 30.8085 40.5381 31.1875V31.2855C40.5973 31.303 40.6588 31.3248 40.7159 31.3465C40.999 31.4533 41.2624 31.6145 41.4686 31.8127ZM44.2844 33.8951C44.2844 36.3325 42.296 38.3059 39.8402 38.3059C37.3843 38.3059 35.3959 36.3325 35.3959 33.8951C35.3959 31.4577 37.3843 29.4842 39.8402 29.4842C42.296 29.4842 44.2844 31.4577 44.2844 33.8951ZM32.1611 17.4126H34.8386C35.1853 17.4126 35.4707 17.6957 35.4707 18.0399V22.3723C35.4707 22.7164 35.1853 22.9996 34.8386 22.9996H32.1611C31.8144 22.9996 31.529 22.7164 31.529 22.3723V18.0399C31.529 17.6936 31.8144 17.4126 32.1611 17.4126ZM8.51573 17.4126H11.1932C11.54 17.4126 11.8253 17.6957 11.8253 18.0399V22.3723C11.8253 22.7164 11.54 22.9996 11.1932 22.9996H8.51573C8.16897 22.9996 7.88367 22.7164 7.88367 22.3723V18.0399C7.88367 17.6936 8.16678 17.4126 8.51573 17.4126ZM36.8575 20.2072H42.1137C42.7963 20.2072 43.3537 19.4601 43.3537 18.5452V6.78067C43.3537 5.86802 42.7963 5.12088 42.1137 5.12088L30.0253 5.1187V1.24808C30.0253 0.903925 29.8826 0.590262 29.6566 0.365934C29.4283 0.139403 29.1145 0 28.7678 0H14.5859C14.2392 0 13.9231 0.139403 13.6971 0.365934C13.4689 0.592465 13.3284 0.903942 13.3284 1.24808V5.1187H1.23997C0.557453 5.1187 0 5.86579 0 6.77849V18.543C0 19.4557 0.557447 20.205 1.23997 20.205H6.49402V18.0377C6.49402 16.9334 7.40043 16.0338 8.51315 16.0338H11.1906C12.3033 16.0338 13.2097 16.9334 13.2097 18.0377V20.205H30.1395V18.0377C30.1395 16.9334 31.0459 16.0338 32.1586 16.0338H34.8361C35.9488 16.0338 36.8552 16.9334 36.8552 18.0377L36.8596 20.2072L36.8575 20.2072ZM28.6384 5.1187H14.7156V1.37444H28.6362L28.6384 5.1187ZM10.2473 30.5838C10.5589 30.5838 10.8113 30.8343 10.8113 31.1436V32.8186C10.8113 33.1279 10.5589 33.3784 10.2473 33.3784H5.18203C4.87038 33.3784 4.618 33.1279 4.618 32.8186V31.1436C4.618 30.8343 4.87039 30.5838 5.18203 30.5838H10.2473Z" fill="#FFA81D"/>
</svg>
