<svg width="52" height="52" viewBox="0 0 52 52" fill="none" xmlns="http://www.w3.org/2000/svg">
<path d="M47.1143 57.9997H6.10668C2.75896 57.9967 0.0483701 55.2831 0.0424805 51.9355L0.04543 27.2157C0.0483793 23.868 2.76198 21.1574 6.10963 21.1515H47.1172C50.465 21.1544 53.1755 23.868 53.1814 27.2157V51.9385C53.1755 55.2833 50.462 57.9967 47.1143 57.9997ZM6.10668 22.6612C3.5937 22.6641 1.55558 24.6993 1.55558 27.2123V51.9351C1.55853 54.4481 3.5937 56.4862 6.10668 56.4862H47.1143C49.6273 56.4832 51.6654 54.4481 51.6654 51.9351L51.6683 27.2153C51.6654 24.7023 49.6302 22.6642 47.1172 22.6642L6.10668 22.6612Z" fill="black"/>
<path d="M52.423 37.0578H0.0454102V29.2948H52.423V30.8079H1.55557V35.5478H52.423V37.0578Z" fill="black"/>
<path d="M47.0464 52.2687H40.5693C39.652 52.2687 38.9087 51.5254 38.9087 50.6081V44.8565C38.9087 43.9392 39.652 43.1959 40.5693 43.1959H47.0464C47.9637 43.1959 48.707 43.9392 48.707 44.8565V50.6081C48.707 51.5254 47.9637 52.2687 47.0464 52.2687ZM40.5693 44.7028C40.4867 44.7028 40.4188 44.7706 40.4188 44.8532V50.6048C40.4188 50.6874 40.4867 50.7552 40.5693 50.7552H47.0464C47.129 50.7552 47.1968 50.6874 47.1968 50.6048V44.8532C47.1968 44.7706 47.129 44.7028 47.0464 44.7028H40.5693Z" fill="black"/>
<path d="M9.08936 43.1926H26.6125V44.7028H9.08936V43.1926Z" fill="black"/>
<path d="M9.08936 46.9742H26.6125V48.4844H9.08936V46.9742Z" fill="black"/>
<path d="M9.08936 50.7556H26.6125V52.2658H9.08936V50.7556Z" fill="black"/>
<path d="M52.6535 37.353L52.1963 35.9196L57.2843 34.2944C59.6764 33.5217 60.9978 30.9614 60.2368 28.5665L52.7214 5.02007C51.9487 2.63092 49.3944 1.30953 46.9994 2.06461L7.93306 14.5385C5.53802 15.3054 4.21663 17.8656 4.98055 20.2635L5.49081 21.8563L4.05148 22.3135L3.54416 20.7178C2.52948 17.5293 4.28744 14.1197 7.47586 13.099L46.5422 0.634166C49.7306 -0.374545 53.1344 1.38335 54.1609 4.56587L61.6792 28.1176C62.688 31.306 60.9301 34.7098 57.7475 35.7363L52.6535 37.353Z" fill="black"/>
<path d="M40.218 19.4079C37.5516 19.405 35.3926 17.243 35.3955 14.5766C35.3985 11.9103 37.5605 9.75121 40.2268 9.75415C42.8931 9.7571 45.0522 11.9191 45.0493 14.5855C45.0463 16.6885 43.6866 18.5467 41.6839 19.1837C41.209 19.3342 40.7165 19.4079 40.218 19.4079ZM40.218 11.2644C38.3863 11.2614 36.8968 12.745 36.8968 14.5767C36.8939 16.4084 38.3775 17.8978 40.2091 17.8978C42.0408 17.9008 43.5303 16.4172 43.5303 14.5855C43.5303 14.2404 43.4772 13.8983 43.371 13.5709C42.9345 12.1993 41.6603 11.2673 40.218 11.2644Z" fill="black"/>
<path d="M45.5303 17.7118C44.8106 17.7118 44.0998 17.5496 43.4509 17.2399L44.1027 15.8801C45.7574 16.6677 47.7336 15.9686 48.5212 14.3139C49.3087 12.6592 48.6097 10.683 46.955 9.8955C45.374 9.14337 43.4804 9.74802 42.6309 11.2759L41.3125 10.5444C42.6103 8.21722 45.548 7.37954 47.8781 8.67729C50.2082 9.97512 51.043 12.9128 49.7452 15.2429C48.8928 16.7708 47.2824 17.7205 45.5304 17.7205L45.5303 17.7118Z" fill="black"/>
</svg>
