<svg width="66" height="64" viewBox="0 0 66 64" fill="none" xmlns="http://www.w3.org/2000/svg">
<path d="M50.8301 36C48.0611 36 45.3544 36.8211 43.0521 38.3594C40.7498 39.8978 38.9554 42.0843 37.8958 44.6424C36.8361 47.2006 36.5589 50.0155 37.0991 52.7313C37.6393 55.447 38.9727 57.9416 40.9306 59.8995C42.8885 61.8574 45.3831 63.1908 48.0988 63.731C50.8146 64.2712 53.6295 63.9939 56.1877 62.9343C58.7458 61.8747 60.9323 60.0803 62.4707 57.778C64.009 55.4757 64.8301 52.7689 64.8301 50C64.8301 46.287 63.3551 42.726 60.7296 40.1005C58.1041 37.475 54.5431 36 50.8301 36ZM50.8301 56C49.6434 56 48.4834 55.6481 47.4967 54.9888C46.51 54.3295 45.7409 53.3925 45.2868 52.2961C44.8327 51.1997 44.7139 49.9933 44.9454 48.8295C45.1769 47.6656 45.7483 46.5965 46.5874 45.7574C47.4266 44.9182 48.4957 44.3468 49.6595 44.1153C50.8234 43.8838 52.0298 44.0026 53.1262 44.4567C54.2225 44.9108 55.1596 45.6799 55.8189 46.6666C56.4782 47.6533 56.8301 48.8133 56.8301 50C56.8301 51.5913 56.1979 53.1174 55.0727 54.2426C53.9475 55.3679 52.4214 56 50.8301 56Z" fill="#043668"/>
<path d="M18.83 52V45.66L24 50.83L29.66 45.17L17.66 33.17C17.2885 32.7981 16.8474 32.503 16.3618 32.3017C15.8762 32.1004 15.3557 31.9968 14.83 31.9968C14.3043 31.9968 13.7838 32.1004 13.2982 32.3017C12.8126 32.503 12.3715 32.7981 12 33.17L0 45.17L5.66 50.83L10.83 45.66V52C10.83 55.1826 12.0943 58.2348 14.3447 60.4853C16.5952 62.7357 19.6474 64 22.83 64H32.83V56H22.83C21.7691 56 20.7517 55.5785 20.0016 54.8284C19.2514 54.0783 18.83 53.0608 18.83 52Z" fill="#043668"/>
<path d="M14.8301 28C17.599 28 20.3058 27.1789 22.6081 25.6406C24.9104 24.1022 26.7048 21.9157 27.7644 19.3576C28.824 16.7994 29.1013 13.9845 28.5611 11.2687C28.0209 8.55301 26.6875 6.05845 24.7296 4.10051C22.7716 2.14258 20.2771 0.809205 17.5613 0.269012C14.8456 -0.271181 12.0307 0.00606596 9.47251 1.06569C6.91434 2.12532 4.72784 3.91973 3.1895 6.22202C1.65116 8.52431 0.830078 11.2311 0.830078 14C0.830078 17.713 2.30507 21.274 4.93058 23.8995C7.55609 26.525 11.117 28 14.8301 28ZM14.8301 8.00001C16.0168 8.00001 17.1768 8.3519 18.1635 9.01119C19.1502 9.67048 19.9192 10.6075 20.3734 11.7039C20.8275 12.8003 20.9463 14.0067 20.7148 15.1705C20.4833 16.3344 19.9118 17.4035 19.0727 18.2426C18.2336 19.0818 17.1645 19.6532 16.0006 19.8847C14.8367 20.1162 13.6303 19.9974 12.534 19.5433C11.4376 19.0892 10.5005 18.3201 9.84126 17.3334C9.18197 16.3467 8.83008 15.1867 8.83008 14C8.83008 12.4087 9.46222 10.8826 10.5874 9.75736C11.7127 8.63215 13.2388 8.00001 14.8301 8.00001Z" fill="#043668"/>
<path d="M41.6601 13.17L36.0001 18.83L48.0001 30.83C48.3716 31.2019 48.8127 31.4969 49.2983 31.6982C49.7839 31.8995 50.3044 32.0031 50.8301 32.0031C51.3557 32.0031 51.8762 31.8995 52.3618 31.6982C52.8474 31.4969 53.2886 31.2019 53.6601 30.83L65.6601 18.83L60.0001 13.17L54.8301 18.34V12C54.8301 8.8174 53.5658 5.76516 51.3154 3.51472C49.0649 1.26428 46.0127 0 42.8301 0H32.8301V8H42.8301C43.8909 8 44.9084 8.42143 45.6585 9.17157C46.4087 9.92172 46.8301 10.9391 46.8301 12V18.34L41.6601 13.17Z" fill="#043668"/>
</svg>
