<svg width="24" height="24" viewBox="0 0 29 24" fill="none" xmlns="http://www.w3.org/2000/svg">
<path fill-rule="evenodd" clip-rule="evenodd" d="M21.6368 13.1901C22.674 13.8282 23.4822 14.8078 23.9105 15.9753C24.251 16.904 23.578 17.8836 22.599 17.8836H17.4882L16.4323 17.0198C16.5467 16.6054 16.528 16.161 16.3711 15.7366C16.1027 15.0047 15.7059 14.3456 15.2115 13.7834C15.4563 13.5627 15.7217 13.364 16.001 13.1912C17.3234 15.2593 20.3145 15.2593 21.637 13.1903L21.6368 13.1901ZM7.22881 14.7539C5.91235 13.2201 5.1574 11.5704 5.60149 10.1335L1.90468 3.78037C-1.76534 7.33247 0.465852 14.1647 3.57248 17.8405C6.56468 21.5542 12.7206 24.9664 16.829 22.0974L11.4062 17.2052C9.93872 17.375 8.47809 16.3307 7.22881 14.7539ZM7.98868 4.17584C7.81006 4.29667 7.56827 4.24874 7.44888 4.066C7.32947 3.88525 7.37684 3.64059 7.55743 3.51978L9.1818 2.42431C9.36042 2.30348 9.60221 2.35141 9.7216 2.53416C9.84101 2.7149 9.79364 2.95957 9.61305 3.08038L7.98868 4.17584ZM8.87684 6.37375C8.66368 6.39272 8.4752 6.23095 8.45643 6.01325C8.43768 5.79755 8.59755 5.60683 8.8127 5.58784L10.3364 5.46102C10.5496 5.44205 10.738 5.60382 10.7568 5.82152C10.7755 6.03722 10.6157 6.22793 10.4005 6.24693L8.87684 6.37375ZM6.78174 1.94506C6.68602 2.13879 6.45509 2.21967 6.26364 2.12281C6.07219 2.02595 5.99226 1.79227 6.08798 1.59855L6.68109 0.385261C6.77682 0.191535 7.00775 0.110654 7.1992 0.207513C7.39064 0.304372 7.47058 0.538054 7.37486 0.731777L6.78174 1.94506ZM17.5652 21.4973C17.7537 21.3166 17.9353 21.1229 18.1099 20.9132C18.5244 20.4129 18.5382 19.63 18.0359 19.2175L14.7388 16.5264C14.2414 16.12 13.5743 16.0341 13.0789 16.4426C12.8657 16.6173 12.6536 16.7601 12.4404 16.873L17.5652 21.4973ZM6.01298 9.29953L2.50565 3.26902C2.71881 3.11024 2.9448 2.95946 3.18658 2.81965C3.74811 2.49712 4.51094 2.62293 4.8218 3.19613L6.84781 6.95786C7.15372 7.52607 7.11919 8.2041 6.63267 8.6235C6.383 8.83919 6.17777 9.06488 6.01298 9.29953ZM18.8203 8.65044C17.3439 8.65044 16.1499 9.86173 16.1499 11.3525C16.1499 12.8434 17.347 14.0546 18.8203 14.0546C20.2966 14.0546 21.4906 12.8434 21.4906 11.3525C21.4906 9.86173 20.2936 8.65044 18.8203 8.65044ZM10.6433 8.65044C12.1196 8.65044 13.3136 9.86173 13.3136 11.3525C13.3136 12.8434 12.1166 14.0546 10.6433 14.0546C9.16692 14.0546 7.97292 12.8434 7.97292 11.3525C7.97292 9.86173 9.16702 8.65044 10.6433 8.65044ZM13.4589 13.1901C12.1375 15.2592 9.14539 15.2592 7.82689 13.1901C7.61176 13.3219 7.40451 13.4697 7.21011 13.6315C7.37985 13.8651 7.56143 14.0918 7.74203 14.3015L7.75782 14.3235C8.96474 15.8463 10.8023 17.4341 12.6506 15.9082C13.4036 15.2871 14.4348 15.392 15.1661 15.9891L15.8233 16.5244C15.8283 16.3436 15.7997 16.1589 15.7325 15.9752C15.3052 14.8098 14.4961 13.8283 13.4589 13.1901Z" fill="black" fill-opacity="0.7"/>
</svg>
