<svg width="27" height="23" viewBox="0 0 29 24" fill="none" xmlns="http://www.w3.org/2000/svg">
<path d="M25.3113 8.1719L22.3491 5.24099L18.21 1.14442C17.6039 0.544705 16.5941 0.977907 16.5941 1.81048V5.2733L0.94272 5.2746C0.403638 5.2746 0 5.7078 0 6.20734V8.87156C0 9.40494 0.437835 9.80431 0.94272 9.80431H24.6379C25.4794 9.77049 25.9175 8.77159 25.3113 8.1719Z" fill="black" fill-opacity="0.7"/>
<path d="M25.9845 13.6992H2.28928C1.44781 13.6992 1.00997 14.6982 1.6161 15.298L8.71881 22.3255C9.32494 22.9252 10.3347 22.492 10.3347 21.6595L10.3334 18.2289H25.9848C26.5239 18.2289 26.9275 17.7957 26.9275 17.2962V14.632C26.9275 14.1324 26.4894 13.6992 25.9845 13.6992Z" fill="black" fill-opacity="0.7"/>
</svg>
