<svg width="32" height="32" viewBox="0 0 32 32" fill="none" xmlns="http://www.w3.org/2000/svg">
<path d="M8.76422 24.7071C9.15063 25.0552 9.1877 25.6482 8.84891 26.0347L6.35565 28.8579C6.16773 29.0749 5.91364 29.1782 5.6503 29.1782C5.424 29.1782 5.20829 29.1027 5.02965 28.9426C4.63394 28.5945 4.59691 28.0015 4.94495 27.615L7.43821 24.7918C7.77699 24.3961 8.36987 24.359 8.76557 24.7071H8.76422ZM16.0003 5.64759C16.5178 5.64759 16.9412 5.22404 16.9412 4.70654V0.94105C16.9412 0.423545 16.5178 0 16.0003 0C15.4829 0 15.0594 0.423545 15.0594 0.94105V4.70518C15.0594 5.22269 15.4829 5.64623 16.0003 5.64623V5.64759ZM7.43685 7.20942C7.61551 7.42648 7.87887 7.52972 8.14221 7.52972C8.35924 7.52972 8.58422 7.45428 8.76286 7.29413C9.14928 6.94604 9.18634 6.35308 8.84756 5.96657L6.3543 3.14338C6.00626 2.74762 5.41339 2.71059 5.02694 3.05867C4.63123 3.40676 4.5942 3.99972 4.94224 4.38623L7.4355 7.20942H7.43685ZM23.8588 7.52972C24.1222 7.52972 24.3855 7.42648 24.5642 7.20942L27.0574 4.38623C27.4055 3.99976 27.3684 3.4068 26.9727 3.05867C26.5863 2.71984 25.9841 2.74763 25.6454 3.14338L23.1521 5.96657C22.8133 6.35304 22.8504 6.94601 23.2368 7.29413C23.4155 7.45428 23.6418 7.52972 23.8575 7.52972H23.8588ZM16.0007 12.2365C13.9203 12.2365 12.2371 13.9214 12.2371 16.0006C12.2371 18.0813 13.9218 19.7648 16.0007 19.7648C18.081 19.7648 19.7642 18.0798 19.7642 16.0006C19.7642 13.92 18.0796 12.2365 16.0007 12.2365ZM16.0007 26.3538C15.4832 26.3538 15.0598 26.7773 15.0598 27.2948V31.059C15.0598 31.5765 15.4832 32 16.0007 32C16.5181 32 16.9416 31.5765 16.9416 31.059V27.2948C16.9416 26.7773 16.5181 26.3538 16.0007 26.3538ZM31.7264 16.6692C26.503 21.8842 21.2519 24.4902 16.0007 24.4902C10.7495 24.4902 5.49832 21.8827 0.274925 16.6692C-0.0916415 16.3025 -0.0916415 15.7003 0.274925 15.3323C10.7112 4.90398 21.2888 4.90398 31.7251 15.3323C32.0916 15.699 32.0916 16.3012 31.7251 16.6692H31.7264ZM7.53104 16.0007C7.53104 14.1649 8.12391 12.4707 9.12174 11.0785C6.85346 12.1797 4.58506 13.8169 2.29825 16.0007C4.58506 18.1846 6.85323 19.8218 9.12174 20.923C8.12391 19.5306 7.53104 17.8364 7.53104 16.0007ZM22.5884 16.0007C22.5884 12.3674 19.6332 9.41206 16.0007 9.41206C12.3681 9.41206 9.41299 12.3676 9.41299 16.0007C9.41299 19.6338 12.3681 22.5894 16.0007 22.5894C19.6332 22.5894 22.5884 19.6338 22.5884 16.0007ZM29.7029 16.0007C27.4161 13.8168 25.1479 12.1797 22.8794 11.0785C23.8772 12.4709 24.4701 14.1651 24.4701 16.0007C24.4701 17.8364 23.8772 19.5307 22.8794 20.923C25.1477 19.8218 27.4161 18.1845 29.7029 16.0007ZM24.5642 24.7918C24.2254 24.3961 23.6325 24.359 23.2368 24.7071C22.8504 25.0552 22.8133 25.6482 23.1521 26.0347L25.6454 28.8579C25.8333 29.0749 26.0874 29.1782 26.3507 29.1782C26.577 29.1782 26.7927 29.1027 26.9714 28.9426C27.3671 28.5945 27.4041 28.0015 27.0561 27.615L24.5628 24.7918H24.5642Z" fill="black" fill-opacity="0.77"/>
</svg>
