<svg width="38" height="39" viewBox="0 0 38 39" fill="none" xmlns="http://www.w3.org/2000/svg">
<path d="M23.786 7.31798C25.7702 7.71362 27.6992 6.42915 28.0951 4.44753C28.4922 2.46592 27.2064 0.537107 25.2223 0.140707C23.2373 -0.256075 21.3094 1.03031 20.9108 3.01192C20.5153 4.99239 21.7999 6.9212 23.786 7.31798ZM31.5336 24.3138C33.1195 24.1891 34.192 23.2581 34.1024 21.5884C34.0017 19.7701 34.2035 18.3613 33.2574 15.0038C31.5646 9.02296 30.3332 8.46088 29.2967 7.82496C29.0149 7.66541 28.7189 7.55712 28.4179 7.49743C27.7819 7.3704 27.1245 7.45994 26.5524 7.73925C25.8958 7.84103 25.3126 8.29061 25.0902 8.96671H25.0894C25.0894 8.96671 25.0825 8.99044 25.0342 9.1079C24.8769 9.51616 24.3412 10.6583 23.526 11.4675C22.6687 12.2799 21.1314 13.0635 19.5998 13.1155L14.6022 13.4824L14.6355 16.2813L19.6664 16.4685C22.9099 16.4417 25.2912 15.1155 26.5877 13.5444C26.6095 13.585 26.6275 13.6156 26.6485 13.6577C27.0368 14.4218 27.0621 14.6188 27.6138 16.5844C28.1227 18.4026 28.0293 19.7265 28.1629 20.6345C27.646 20.6984 27.1103 20.7669 26.5858 20.8334C24.6816 21.0787 22.9478 21.3155 22.9429 21.3155C22.7893 21.3366 22.6457 21.3798 22.5052 21.4319C22.4673 21.4468 22.4325 21.464 22.3953 21.4782C22.2827 21.5294 22.1728 21.5876 22.0733 21.6584C22.0515 21.6733 22.0285 21.6859 22.0051 21.7016C21.8887 21.7881 21.788 21.8895 21.6942 21.997C21.6697 22.0261 21.6456 22.0586 21.6222 22.0892C21.5457 22.1902 21.4779 22.297 21.4197 22.4114C21.4116 22.429 21.3979 22.4412 21.3898 22.4588L15.6444 35.7187L18.5219 37.0636L20.5486 33.7627L20.6382 37.2974L23.539 37.5488L25.1238 25.0863L31.5336 24.3138Z" fill="#FFA81D"/>
<path d="M5.56195 15.435V17.0681H13.6396V15.2322H5.80777L3.50158 6.68018L1.72607 7.15846L4.0675 15.8372L5.56195 15.435Z" fill="#FFA81D"/>
<path d="M21.4255 17.8579H0V20.3285H21.4255V17.8579Z" fill="#FFA81D"/>
<path d="M36.5569 10.4563C35.7597 10.4563 35.1149 11.1022 35.1149 11.8976V20.2683C35.1149 20.9169 35.5464 21.4617 36.1365 21.6404V23.0114C36.1479 24.1171 36.0346 24.6459 35.8998 24.7714C35.8432 24.8625 35.6682 24.9237 35.3205 24.9513C35.1352 24.3685 34.5953 23.9423 33.9501 23.9423H33.7855C33.3321 24.377 32.6854 24.6329 31.9123 24.693L25.503 25.4655L25.3326 26.802C25.4118 26.8169 25.4911 26.8273 25.573 26.8273H29.5284V32.8827C27.5879 33.0453 26.0046 34.4576 25.5853 36.3133C25.1848 36.4591 24.8969 36.839 24.8969 37.289C24.8969 37.8641 25.3644 38.3317 25.9399 38.3317C26.5169 38.3317 26.9844 37.8641 26.9844 37.289C26.9844 36.9305 26.8025 36.6175 26.528 36.4308C26.8837 35.0373 28.0676 33.9942 29.5288 33.8362V36.3183C29.1378 36.4694 28.8602 36.8463 28.8602 37.289C28.8602 37.8641 29.3258 38.3317 29.9025 38.3317C30.4787 38.3317 30.9451 37.8641 30.9451 37.289C30.9451 36.8463 30.666 36.469 30.2743 36.3183V33.8362C31.7347 33.9942 32.9201 35.0392 33.2747 36.4308C33.0013 36.6175 32.8213 36.9328 32.8213 37.289C32.8213 37.8641 33.2877 38.3317 33.864 38.3317C34.4406 38.3317 34.907 37.8641 34.907 37.289C34.907 36.8379 34.6198 36.4591 34.2193 36.3133C33.7989 34.4576 32.2163 33.0453 30.2743 32.8827V26.8273H33.9509C34.6432 26.8273 35.2175 26.3406 35.3588 25.6928C35.801 25.6687 36.1686 25.5818 36.4688 25.2524C36.8479 24.7714 36.8709 24.1386 36.8816 23.0117V21.671C37.5229 21.5233 38.0012 20.9536 38.0012 20.2687V11.8976C38.0004 11.1022 37.3552 10.4563 36.5569 10.4563Z" fill="#FFA81D"/>
</svg>
