<svg width="53" height="46" viewBox="0 0 53 46" fill="none" xmlns="http://www.w3.org/2000/svg">
<path fill-rule="evenodd" clip-rule="evenodd" d="M40.4516 28.0994C40.1497 28.0994 39.9032 27.8425 39.9032 27.528V15.835C39.9032 14.9635 39.2246 14.2421 38.3744 14.2421H24.6256C23.7891 14.2421 23.0968 14.9491 23.0968 15.835V24.2531C23.0968 24.5676 22.8503 24.8245 22.5484 24.8245C22.2465 24.8245 22 24.5676 22 24.2531V15.835C22 14.3171 23.1827 13.0994 24.6256 13.0994H38.3744C39.8312 13.0994 41 14.3316 41 15.835V27.528C41 27.8281 40.7535 28.0994 40.4516 28.0994Z" fill="#FFA81D"/>
<path fill-rule="evenodd" clip-rule="evenodd" d="M30.5867 19.0993C30.5096 19.0993 30.4326 19.0854 30.3556 19.0548C30.1393 18.9685 30 18.7654 30 18.5483V13.6504C30 13.3471 30.2637 13.0994 30.5867 13.0994C30.9096 13.0994 31.1733 13.3471 31.1733 13.6504V17.2737L31.6059 16.898C31.837 16.6949 32.1926 16.6949 32.4089 16.898L32.8267 17.2598V13.6504C32.8267 13.347 33.0904 13.0994 33.4133 13.0994C33.7363 13.0994 34 13.347 34 13.6504V18.5483C34 18.7653 33.8607 18.9685 33.6444 19.0548C33.4281 19.141 33.1822 19.0993 32.9956 18.9546L31.9911 18.0696L30.9718 18.9546C30.88 19.0408 30.7407 19.0993 30.5867 19.0993Z" fill="#FFA81D"/>
<path fill-rule="evenodd" clip-rule="evenodd" d="M35.7777 31.0994H32.3262C32.0252 31.0994 31.7795 30.8204 31.7795 30.4787C31.7795 30.137 32.0252 29.858 32.3262 29.858H35.7777C36.0787 29.858 36.3244 30.137 36.3244 30.4787C36.3244 30.8204 36.0952 31.0994 35.7777 31.0994ZM38.4395 29.3533C38.1385 29.3533 37.8928 29.0743 37.8928 28.7326V28.4379C37.8928 28.3878 37.8486 28.3407 37.8072 28.3407H26.5467C26.2458 28.3407 26 28.0617 26 27.7201C26 27.3784 26.2458 27.0994 26.5467 27.0994H37.8072C38.4698 27.0994 39 27.7044 39 28.4536V28.7483C38.9862 29.0743 38.7404 29.3533 38.4395 29.3533Z" fill="#FFA81D"/>
<path fill-rule="evenodd" clip-rule="evenodd" d="M37.4544 26.0994H31.497C31.1966 26.0994 30.9514 25.8746 30.9514 25.5994C30.9514 25.3241 31.1966 25.0994 31.497 25.0994H37.4544C37.7548 25.0994 38 25.3241 38 25.5994C38 25.8746 37.7548 26.0994 37.4544 26.0994ZM29.5023 26.0994H26.5456C26.2452 26.0994 26 25.8746 26 25.5994C26 25.3241 26.2452 25.0994 26.5456 25.0994H29.5023C29.8026 25.0994 30.0479 25.3241 30.0479 25.5994C30.0479 25.8746 29.8026 26.0994 29.5023 26.0994Z" fill="#FFA81D"/>
<path fill-rule="evenodd" clip-rule="evenodd" d="M37.4543 24.0994H36.5641C36.2637 24.0994 36.0184 23.8746 36.0184 23.5994C36.0184 23.3241 36.2637 23.0994 36.5641 23.0994H37.4543C37.7547 23.0994 38 23.3241 38 23.5994C38 23.8746 37.7547 24.0994 37.4543 24.0994ZM34.2821 24.0994H26.5457C26.2453 24.0994 26 23.8746 26 23.5994C26 23.3241 26.2453 23.0994 26.5457 23.0994H34.2821C34.5825 23.0994 34.8278 23.3241 34.8278 23.5994C34.8278 23.8746 34.5825 24.0994 34.2821 24.0994Z" fill="#FFA81D"/>
<path fill-rule="evenodd" clip-rule="evenodd" d="M37.4538 23.0994H31.9946C31.6939 23.0994 31.4484 22.8746 31.4484 22.5994C31.4484 22.3241 31.6939 22.0994 31.9946 22.0994H37.4538C37.7545 22.0994 38 22.3241 38 22.5994C38 22.8746 37.7545 23.0994 37.4538 23.0994ZM29.1475 23.0994H26.5462C26.2455 23.0994 26 22.8746 26 22.5994C26 22.3241 26.2455 22.0994 26.5462 22.0994H29.1475C29.4482 22.0994 29.6937 22.3241 29.6937 22.5994C29.6937 22.8746 29.4482 23.0994 29.1475 23.0994Z" fill="#FFA81D"/>
<path fill-rule="evenodd" clip-rule="evenodd" d="M37.4544 21.0994H35.4154C35.115 21.0994 34.8698 20.8746 34.8698 20.5994C34.8698 20.3241 35.115 20.0994 35.4154 20.0994H37.4544C37.7548 20.0994 38 20.3241 38 20.5994C38 20.8746 37.7548 21.0994 37.4544 21.0994ZM32.8473 21.0994H26.5456C26.2452 21.0994 26 20.8746 26 20.5994C26 20.3241 26.2452 20.0994 26.5456 20.0994H32.8473C33.1477 20.0994 33.3929 20.3241 33.3929 20.5994C33.3929 20.8746 33.1642 21.0994 32.8473 21.0994Z" fill="#FFA81D"/>
<path fill-rule="evenodd" clip-rule="evenodd" d="M27.9096 40.0994C27.7783 40.0994 27.633 40.0994 27.4877 40.0856C23.9947 39.9564 20.443 38.3393 16.9052 35.2593L12.9763 37.4951C12.7136 37.6519 12.3643 37.5529 12.219 37.2943L8.07209 30.2325C7.99943 30.1033 7.98546 29.9603 8.0134 29.8173C8.04135 29.6743 8.14474 29.5588 8.27608 29.4873L18.2469 23.814C18.2609 23.814 18.2748 23.8003 18.2916 23.8003C22.0026 22.054 23.3719 23.8718 24.959 25.9617C26.2557 27.6668 28.86 28.5247 30.302 28.885C32.1072 29.3442 33.0517 30.117 33.5491 30.832L40.0266 27.1497C40.7978 26.7207 41.6864 26.5914 42.5443 26.8197C43.4022 27.0479 44.1175 27.5787 44.5535 28.3376C45.47 29.8997 44.9307 31.9044 43.3463 32.8064L32.1687 39.1507C32.11 39.2084 30.5535 40.0967 27.9184 40.0967L27.9096 40.0994ZM16.9781 34.0549C17.1094 34.0549 17.2547 34.0989 17.3553 34.1979C25.6379 41.604 31.5311 38.2651 31.5897 38.2239L42.7674 31.8797C43.8152 31.2774 44.1786 29.9464 43.5666 28.9152C43.276 28.4147 42.7953 28.0544 42.2281 27.9114C41.6608 27.7684 41.0628 27.8399 40.5542 28.1259L33.9902 31.8632V31.8907C34.2528 32.9797 33.8588 34.1265 32.9562 34.8855C31.9223 35.76 30.4664 35.9607 29.0553 35.43L23.7711 33.8267C23.4804 33.7415 23.3044 33.4252 23.4078 33.1392C23.4944 32.8532 23.8158 32.68 24.1064 32.7817L29.4045 34.385C29.4185 34.385 29.4325 34.3987 29.4493 34.3987C30.4971 34.8002 31.5004 34.6847 32.2297 34.055C32.8109 33.5545 33.0736 32.823 32.9003 32.1492C32.8864 32.064 32.8556 31.976 32.8137 31.8907C32.7858 31.8467 32.769 31.8055 32.755 31.7752C32.3778 30.9584 31.4026 30.3287 29.9886 29.985C28.4013 29.5835 25.5342 28.6237 24.0365 26.6629C22.3179 24.3997 21.5187 23.5252 18.769 24.8149L9.29323 30.1994L12.8896 36.3154L16.6872 34.1539C16.7878 34.0687 16.8915 34.0549 16.9781 34.0549Z" fill="#FFA81D"/>
<path fill-rule="evenodd" clip-rule="evenodd" d="M17.3631 35.0994C17.1458 35.0994 16.9317 35.0022 16.8135 34.8323L12.0873 27.9042C11.9051 27.6506 12.0202 27.3133 12.3205 27.173C12.6209 27.0193 13.0204 27.1164 13.1865 27.37L17.9127 34.2981C18.0949 34.5517 17.9798 34.8889 17.6795 35.0292C17.5804 35.0859 17.4781 35.0994 17.3631 35.0994Z" fill="#FFA81D"/>
<path fill-rule="evenodd" clip-rule="evenodd" d="M48.7572 45.0994H4.24276C1.91295 45.0994 0 43.1719 0 40.8244V4.37437C0 2.02685 1.89917 0.0993652 4.24276 0.0993652H48.7572C51.1008 0.0993652 52.9999 2.01297 52.9999 4.37437V40.8244C53.0137 43.1858 51.1008 45.0994 48.7572 45.0994ZM4.24276 1.23421C2.5175 1.23421 1.10968 2.65274 1.10968 4.39111V40.8411C1.10968 42.5933 2.5175 44.0146 4.24276 44.0146H48.7572C50.4962 44.0146 51.9068 42.5961 51.9068 40.8411V4.37687C51.9068 2.6385 50.499 1.21997 48.7572 1.21997H4.24276V1.23421Z" fill="#FFA81D"/>
<path fill-rule="evenodd" clip-rule="evenodd" d="M52.4533 9.09937H0.546733C0.245756 9.09937 0 8.87462 0 8.59936C0 8.32411 0.245756 8.09937 0.546733 8.09937H52.4533C52.7542 8.09937 53 8.32411 53 8.59936C53 8.87462 52.7542 9.09937 52.4533 9.09937Z" fill="#FFA81D"/>
<path fill-rule="evenodd" clip-rule="evenodd" d="M6.50649 8.09937C5.12001 8.09937 4 6.76192 4 5.09937C4 3.4399 5.11743 2.09937 6.50649 2.09937C7.87999 2.09937 9 3.43681 9 5.09937C9 6.75883 7.88257 8.09937 6.50649 8.09937ZM6.50649 3.34091C5.69684 3.34091 5.03724 4.13037 5.03724 5.09944C5.03724 6.06851 5.69683 6.85798 6.50649 6.85798C7.31614 6.85798 7.96276 6.06852 7.96276 5.09944C7.96276 4.13038 7.3161 3.34091 6.50649 3.34091Z" fill="#FFA81D"/>
<path fill-rule="evenodd" clip-rule="evenodd" d="M13.0078 8.09937C11.344 8.09937 10 6.76192 10 5.09937C10 3.4399 11.3409 2.09937 13.0078 2.09937C14.656 2.09937 16 3.43681 16 5.09937C16 6.75883 14.6591 8.09937 13.0078 8.09937ZM13.0078 3.34091C12.0362 3.34091 11.2447 4.13037 11.2447 5.09944C11.2447 6.06851 12.0362 6.85798 13.0078 6.85798C13.9794 6.85798 14.7553 6.06852 14.7553 5.09944C14.7553 4.13038 13.9793 3.34091 13.0078 3.34091Z" fill="#FFA81D"/>
<path fill-rule="evenodd" clip-rule="evenodd" d="M19.0078 8.09937C17.344 8.09937 16 6.76192 16 5.09937C16 3.4399 17.3409 2.09937 19.0078 2.09937C20.656 2.09937 22 3.43681 22 5.09937C22 6.75883 20.6746 8.09937 19.0078 8.09937ZM19.0078 3.34091C18.0362 3.34091 17.2447 4.13037 17.2447 5.09944C17.2447 6.06851 18.0362 6.85798 19.0078 6.85798C19.9794 6.85798 20.7553 6.06852 20.7553 5.09944C20.7553 4.13038 19.9793 3.34091 19.0078 3.34091Z" fill="#FFA81D"/>
</svg>
