<svg width="34" height="34" viewBox="0 0 34 34" fill="none" xmlns="http://www.w3.org/2000/svg">
<path d="M17 0C7.62733 0 0 7.62733 0 17C0 26.3727 7.62733 34 17 34C26.3727 34 34 26.3727 34 17C34 7.62733 26.3727 0 17 0ZM17 32.8667C8.25067 32.8667 1.13333 25.7493 1.13333 17C1.13333 8.25067 8.25067 1.13333 17 1.13333C25.7493 1.13333 32.8667 8.25067 32.8667 17C32.8667 25.7493 25.7493 32.8667 17 32.8667Z" fill="black"/>
<path d="M17 30.6V31.7333C25.126 31.7333 31.7333 25.126 31.7333 17H30.6C30.6 24.497 24.497 30.6 17 30.6Z" fill="black"/>
<path d="M17 2.2666C8.874 2.2666 2.26667 8.87393 2.26667 16.9999H3.4C3.4 9.50293 9.503 3.39993 17 3.39993V2.2666Z" fill="black"/>
<path d="M17 8.49995C17 8.49995 17.0283 8.49995 17.0453 8.49995C18.836 8.52262 20.3717 10.0583 20.3943 11.849C20.4057 12.767 20.06 13.634 19.414 14.2856C18.768 14.9373 17.9123 15.3 16.9943 15.3C15.742 15.3 14.7277 16.3143 14.7277 17.5666V22.1C14.7277 23.035 15.4927 23.8 16.4277 23.8C17.3627 23.8 18.1277 23.035 18.1277 22.1V18.6036C19.7653 18.326 21.267 17.4476 22.3097 16.1386C23.477 14.6823 23.9813 12.8463 23.732 10.9706C23.3297 7.93895 20.8307 5.49095 17.7877 5.14529C14.28 4.74295 11.0783 7.03795 10.3417 10.472C10.2397 10.9536 10.3587 11.4466 10.6703 11.8376C10.9933 12.24 11.475 12.4666 12.0133 12.4666C12.818 12.4666 13.498 11.9283 13.668 11.1576C14.0137 9.61062 15.4077 8.49995 16.9887 8.49995H17Z" fill="black"/>
<path d="M16.4333 28.9C17.6852 28.9 18.7 27.8852 18.7 26.6334C18.7 25.3815 17.6852 24.3667 16.4333 24.3667C15.1815 24.3667 14.1667 25.3815 14.1667 26.6334C14.1667 27.8852 15.1815 28.9 16.4333 28.9Z" fill="black"/>
</svg>
