<svg width="21" height="25" viewBox="0 0 21 25" fill="none" xmlns="http://www.w3.org/2000/svg">
<path d="M10.368 2.29228C11.9658 2.2944 13.4975 2.94845 14.6271 4.11094C15.7566 5.27343 16.3918 6.84939 16.3931 8.49304H18.4636C18.4829 7.38493 18.2873 6.28397 17.8884 5.25445C17.4895 4.22493 16.8952 3.28748 16.1402 2.49683C15.3853 1.70618 14.4847 1.07818 13.4912 0.649486C12.4977 0.220792 11.4311 0 10.3538 0C9.27641 0 8.20984 0.220792 7.21633 0.649486C6.22282 1.07818 5.32229 1.70618 4.56731 2.49683C3.81234 3.28748 3.21804 4.22493 2.81912 5.25445C2.4202 6.28397 2.22466 7.38493 2.2439 8.49304H4.34028C4.34233 6.84915 4.97805 5.27319 6.10803 4.11078C7.238 2.94837 8.76998 2.2944 10.368 2.29228ZM18.0055 9.51807H2.99446C2.20028 9.51807 1.43863 9.84261 0.877056 10.4203C0.315487 10.998 1.11856e-06 11.7815 1.11856e-06 12.5985V21.9169C-0.000338946 22.3217 0.0768639 22.7225 0.227197 23.0966C0.37753 23.4706 0.598046 23.8105 0.876141 24.0968C1.15424 24.3832 1.48446 24.6103 1.84793 24.7653C2.2114 24.9202 2.601 25 2.99446 25H18.0055C18.7997 25 19.5614 24.6755 20.1229 24.0978C20.6845 23.5201 21 22.7366 21 21.9196V12.6011C21.0003 12.1964 20.9231 11.7955 20.7728 11.4215C20.6225 11.0475 20.402 10.7076 20.1239 10.4212C19.8458 10.1349 19.5155 9.90778 19.1521 9.75281C18.7886 9.59784 18.399 9.51807 18.0055 9.51807ZM11.7397 18.4904V21.4963C11.7397 21.8345 11.6091 22.1589 11.3766 22.398C11.1441 22.6372 10.8288 22.7716 10.5 22.7716C10.1712 22.7716 9.85588 22.6372 9.62339 22.398C9.3909 22.1589 9.26029 21.8345 9.26029 21.4963V18.4904C8.78761 18.2097 8.41819 17.7763 8.20932 17.2576C8.00045 16.7389 7.9638 16.1637 8.10507 15.6214C8.24633 15.079 8.55761 14.5998 8.99063 14.258C9.42364 13.9162 9.9542 13.7309 10.5 13.7309C11.0458 13.7309 11.5764 13.9162 12.0094 14.258C12.4424 14.5998 12.7537 15.079 12.8949 15.6214C13.0362 16.1637 12.9996 16.7389 12.7907 17.2576C12.5818 17.7763 12.2124 18.2097 11.7397 18.4904Z" fill="black" fill-opacity="0.77"/>
</svg>
