<svg width="33" height="31" viewBox="0 0 33 31" fill="none" xmlns="http://www.w3.org/2000/svg">
<path d="M14.6468 6.73057C14.9454 6.43193 15.4324 6.43193 15.731 6.73057C16.0297 7.0292 16.0297 7.5162 15.731 7.81483L8.80965 14.7385H31.8112C32.2339 14.7385 32.5762 15.0831 32.5762 15.5035C32.5762 15.9261 32.2316 16.2684 31.8112 16.2684H8.80736L15.731 23.1921C16.0297 23.4907 16.0297 23.9777 15.731 24.2764C15.4324 24.575 14.9454 24.575 14.6468 24.2764L6.416 16.0456C6.11737 15.747 6.11737 15.26 6.416 14.9613L14.6468 6.73057Z" fill="black"/>
<path d="M8.0401 23.3531C8.0401 22.9304 8.38468 22.5881 8.80506 22.5881C9.22774 22.5881 9.57002 22.9327 9.57002 23.3531V30.2446C9.57002 30.6673 9.22545 31.0095 8.80506 31.0095H0.764959C0.342279 31.0095 0 30.665 0 30.2446V0.764959C0 0.342279 0.344576 0 0.764959 0H8.80506C9.22774 0 9.57002 0.344576 9.57002 0.764959V7.65648C9.57002 8.07916 9.22545 8.42144 8.80506 8.42144C8.38238 8.42144 8.0401 8.07686 8.0401 7.65648V1.52992H1.53221V29.4796H8.0401V23.3531Z" fill="black"/>
</svg>
