<svg width="61" height="55" viewBox="0 0 61 55" fill="none" xmlns="http://www.w3.org/2000/svg">
<path d="M53.0324 0.577881H8.4346C4.04343 0.577881 0.470703 4.15061 0.470703 8.54178V37.2118C0.470703 41.603 4.04343 45.1757 8.4346 45.1757H30.7335C31.6132 45.1757 32.3263 44.4626 32.3263 43.5829C32.3263 42.7032 31.6132 41.9902 30.7335 41.9902H8.4346C5.80039 41.9902 3.65626 39.846 3.65626 37.2118V19.6912H57.8108V30.8407C57.8108 31.7204 58.5238 32.4335 59.4036 32.4335C60.2833 32.4335 60.9963 31.7204 60.9963 30.8407V8.54178C60.9963 4.15061 57.4236 0.577881 53.0324 0.577881ZM3.65626 16.5057V8.54178C3.65626 5.90757 5.80039 3.76344 8.4346 3.76344H53.0324C55.6666 3.76344 57.8108 5.90757 57.8108 8.54178V16.5057H3.65626Z" fill="#043668"/>
<path d="M14.8057 29.2478C13.926 29.2478 13.2129 29.9609 13.2129 30.8406C13.2129 31.7203 13.926 32.4334 14.8057 32.4334H21.1768C22.0565 32.4334 22.7696 31.7203 22.7696 30.8406C22.7696 29.9609 22.0565 29.2478 21.1768 29.2478H14.8057Z" fill="#043668"/>
<path d="M50.9741 32.8992C50.3516 32.2768 49.3445 32.2768 48.7221 32.8992C48.0997 33.5216 48.0997 34.5287 48.7221 35.1511L55.5588 41.9878H37.1046C36.2249 41.9878 35.5118 42.7009 35.5118 43.5806C35.5118 44.4603 36.2249 45.1734 37.1046 45.1734H55.5588L48.7221 52.0101C48.0997 52.6325 48.0997 53.6396 48.7221 54.262C49.0333 54.5732 49.4401 54.7276 49.8493 54.7276C50.2585 54.7276 50.6653 54.5732 50.9765 54.262L60.5332 44.7054C61.1556 44.0829 61.1556 43.0758 60.5332 42.4534L50.9741 32.8992Z" fill="#043668"/>
</svg>
