<svg width="24" height="24" viewBox="0 0 24 24" fill="none" xmlns="http://www.w3.org/2000/svg">
<path d="M21.6377 0H2.36232C1.29832 0 0.434784 0.886667 0.434784 1.97917V17.0208C0.434784 18.1133 1.29832 19 2.36232 19H21.6377C22.7017 19 23.5652 18.1133 23.5652 17.0208V1.97917C23.5652 0.886667 22.7017 0 21.6377 0ZM2.36627 17.021C1.85836 17.0111 1.85355 16.2412 2.36241 16.2293C2.87321 16.2372 2.87417 17.0101 2.36627 17.021ZM2.36627 15.4376C1.85836 15.4277 1.85355 14.6578 2.36241 14.646C2.87321 14.6539 2.87417 15.4267 2.36627 15.4376ZM2.36627 13.8543C1.85836 13.8444 1.85355 13.0745 2.36241 13.0626C2.87321 13.0705 2.87417 13.8434 2.36627 13.8543ZM1.97691 11.8751C1.98366 11.3546 2.74119 11.3546 2.74793 11.8751C2.74118 12.3947 1.98656 12.3957 1.97691 11.8751ZM6.21761 17.0208H3.51894C3.01296 17.0109 3.012 16.2391 3.51894 16.2292H6.21761C6.72456 16.2371 6.72552 17.0129 6.21761 17.0208ZM3.13356 11.8751C3.13356 11.6574 3.30703 11.4793 3.51906 11.4793H6.21774C6.72372 11.4892 6.72468 12.2611 6.21774 12.271H3.51906C3.30703 12.271 3.13356 12.0928 3.13356 11.8751ZM6.21761 15.4375H3.51894C3.01296 15.4276 3.012 14.6557 3.51894 14.6458H6.21761C6.72456 14.6537 6.72552 15.4296 6.21761 15.4375ZM6.21761 13.8542H3.51894C3.01296 13.8443 3.012 13.0724 3.51894 13.0625H6.21761C6.72456 13.0704 6.72552 13.8463 6.21761 13.8542ZM7.37414 10.6875H1.20602V9.89583H7.37414V10.6875ZM6.60312 6.33321C7.10814 6.3431 7.11103 7.11497 6.60312 7.12487H2.36242C1.8574 7.11498 1.85451 6.34311 2.36242 6.33321H6.60312ZM5.83211 5.14571C5.83211 4.928 6.00558 4.74987 6.21761 4.74987H6.60312C6.81515 4.74987 6.98863 4.928 6.98863 5.14571C6.98863 5.36342 6.81515 5.54154 6.60312 5.54154H6.21761C6.00558 5.54154 5.83211 5.36342 5.83211 5.14571ZM6.60312 8.70808H2.36242C1.8574 8.69818 1.85451 7.92632 2.36242 7.91641H6.60312C7.10814 7.92631 7.11103 8.69817 6.60312 8.70808ZM5.06109 5.54141H2.36242C1.85644 5.53152 1.85547 4.75965 2.36242 4.74975H5.06109C5.56708 4.75964 5.56804 5.53151 5.06109 5.54141ZM22.7944 17.0205C22.7944 17.6736 22.274 18.208 21.6379 18.208H8.14503V3.56225H22.7943L22.7944 17.0205ZM22.7944 2.77045H1.20602V1.97879C1.20602 1.32567 1.72646 0.791287 2.36254 0.791287H21.6379C22.274 0.791287 22.7944 1.32567 22.7944 1.97879V2.77045Z" fill="white"/>
<path d="M2.50118 0.82608C1.94644 0.84263 1.95133 2.46032 2.50118 2.47825C3.05033 2.46033 3.05033 0.844015 2.50118 0.82608Z" fill="white"/>
<path d="M4.15336 0.82608C3.59861 0.84263 3.60351 2.46032 4.15336 2.47825C4.70251 2.46033 4.70251 0.844015 4.15336 0.82608Z" fill="white"/>
<path d="M5.80553 0.82608C5.25078 0.84263 5.25568 2.46032 5.80553 2.47825C6.35468 2.46033 6.35468 0.844015 5.80553 0.82608Z" fill="white"/>
<path d="M9.10349 4.95652H14.0704C14.6127 4.94826 14.6158 4.13974 14.0704 4.13043H9.10349C8.56126 4.13869 8.55816 4.94721 9.10349 4.95652Z" fill="white"/>
<path d="M9.14932 6.60869H12.3724C12.9767 6.5994 12.9779 5.79191 12.3724 5.78261H9.14932C8.54501 5.7919 8.54386 6.59939 9.14932 6.60869Z" fill="white"/>
<path d="M9.10463 8.26087H10.7649C11.3097 8.25158 11.3108 7.44409 10.7649 7.43478H9.10463C8.55984 7.44408 8.55881 8.25157 9.10463 8.26087Z" fill="white"/>
<path d="M17.7825 13.2174C20.0617 13.2174 21.913 11.176 21.913 8.66235C21.6887 2.61873 13.8757 2.62085 13.6522 8.66235C13.6522 11.1758 15.5031 13.2174 17.7825 13.2174ZM19.4872 5.44933C21.2164 6.47419 21.7177 9.31693 20.4222 10.9857L18.2293 8.56747L19.4872 5.44933ZM17.6248 9.07683L19.889 11.5738C17.8679 13.4123 14.6771 11.9443 14.4257 9.07683H17.6248Z" fill="white"/>
<path d="M9.10737 17.3397C11.5767 17.2986 11.1238 17.7483 11.166 15.2813C11.166 15.0548 10.9807 14.8696 10.7543 14.8696H9.10737C8.88093 14.8696 8.69565 15.0548 8.69565 15.2813V16.928C8.69565 17.1545 8.88093 17.3397 9.10737 17.3397Z" fill="white"/>
<path d="M11.7246 13.2174H13.9275C14.2318 13.2174 14.4783 13.4248 14.4783 13.5929V16.9723C14.4783 17.1798 14.2318 17.3478 13.9275 17.3478H11.7246C11.4204 17.3478 11.1739 17.1403 11.1739 16.9723V13.5929C11.1739 13.3854 11.4204 13.2174 11.7246 13.2174Z" fill="white"/>
<path d="M14.8913 14.8696H16.5435C16.7717 14.8696 16.9565 15.1434 16.9565 15.3652V16.8522C16.9565 17.126 16.7717 17.3478 16.5435 17.3478H14.8913C14.6631 17.3478 14.4783 17.074 14.4783 16.8522V15.3652C14.4783 15.0914 14.6631 14.8696 14.8913 14.8696Z" fill="white"/>
<path d="M21.5863 14.0435H18.9355C18.5006 14.0517 18.4989 14.8603 18.9355 14.8696H21.5863C22.0211 14.8613 22.0228 14.0528 21.5863 14.0435Z" fill="white"/>
<path d="M21.5863 14.8696H18.9355C18.5006 14.8861 18.4989 16.5031 18.9355 16.5217H21.5863C22.0211 16.5052 22.0228 14.8882 21.5863 14.8696Z" fill="white"/>
<path d="M21.5863 16.5217H18.9355C18.5006 16.53 18.4989 17.3385 18.9355 17.3478H21.5863C22.0211 17.3396 22.0228 16.531 21.5863 16.5217Z" fill="white"/>
</svg>
