<svg width="29" height="26" viewBox="0 0 29 26" fill="none" xmlns="http://www.w3.org/2000/svg">
<path d="M22.5391 0.000361453H9.25176C6.47447 0.000361453 4.08944 1.88578 3.45289 4.58274C3.34408 5.04294 3.62948 5.50493 4.08967 5.61374C4.54274 5.71898 5.01185 5.43715 5.12067 4.97696C5.57375 3.05409 7.27546 1.71271 9.25363 1.71271H22.5409C24.8848 1.71271 26.7898 3.61777 26.7898 5.96161V19.2489C26.7898 21.591 24.8848 23.4978 22.5409 23.4978H9.25363C7.54301 23.4978 6.00541 22.4811 5.34009 20.9042C5.15636 20.469 4.65513 20.2657 4.21634 20.4494C3.78111 20.6331 3.57778 21.1361 3.76149 21.5731C4.69796 23.7832 6.85449 25.212 9.2535 25.212H22.5408C25.8265 25.212 28.5022 22.5381 28.5022 19.2506V5.96326C28.5005 2.67582 25.8249 0.000361453 22.5391 0.000361453Z" fill="black"/>
<path d="M22.1181 6.46838H9.8171C8.40435 6.46838 7.27704 7.60998 7.27704 9.00844V16.2005C7.27704 17.599 8.40439 18.7406 9.8171 18.7406H22.1181C23.5165 18.7406 24.6581 17.599 24.6581 16.2005V9.00844C24.6581 7.60998 23.5165 6.46838 22.1181 6.46838ZM15.8963 16.0007C14.027 16.0007 12.5001 14.4738 12.5001 12.6045C12.5001 10.7351 14.027 9.20822 15.8963 9.20822C17.7657 9.20822 19.2926 10.7351 19.2926 12.6045C19.2926 14.4738 17.7657 16.0007 15.8963 16.0007Z" fill="black"/>
<path d="M5.22738 9.61487C5.70188 9.61487 6.08358 9.23136 6.08358 8.75867C6.08358 8.28597 5.70008 7.90247 5.22738 7.90247H1.45654C0.982047 7.90247 0.600342 8.28597 0.600342 8.75867C0.600342 9.23136 0.983846 9.61487 1.45654 9.61487H5.22738Z" fill="black"/>
<path d="M6.0836 12.6046C6.0836 12.1301 5.7001 11.7484 5.2274 11.7484H2.29669C1.8222 11.7484 1.44049 12.1319 1.44049 12.6046C1.44049 13.0773 1.824 13.4608 2.29669 13.4608H5.2274C5.70012 13.4608 6.0836 13.0791 6.0836 12.6046Z" fill="black"/>
<path d="M6.08358 16.4504C6.08358 15.9759 5.70007 15.5942 5.22738 15.5942H3.29022C2.81573 15.5942 2.43402 15.9777 2.43402 16.4504C2.43402 16.9231 2.81753 17.3066 3.29022 17.3066H5.22738C5.70009 17.3066 6.08358 16.9249 6.08358 16.4504Z" fill="black"/>
</svg>
