<svg width="19" height="23" viewBox="0 0 19 23" fill="none" xmlns="http://www.w3.org/2000/svg">
<path d="M17.43 3.07515C16.2961 2.97545 15.182 2.73936 14.1198 2.37247C12.8374 1.9306 11.643 1.30528 10.5687 0.514058C9.93914 0.0506525 9.06 0.0506525 8.43044 0.514058C7.35612 1.30448 6.16177 1.9298 4.87932 2.37247C3.8171 2.73936 2.70306 2.97545 1.56916 3.07515C0.674469 3.15411 0 3.83686 0 4.66238V12.5474C0 15.8918 2.01218 18.8987 5.25153 20.395L8.72751 21.9998C8.96932 22.1115 9.23444 22.1665 9.49957 22.1665C9.76469 22.1665 10.0298 22.1107 10.2725 21.9998L13.7485 20.395C16.987 18.8987 19 15.8918 19 12.5474V4.66238C19 3.83606 18.3247 3.15411 17.43 3.07515ZM13.5697 9.62504L9.25172 13.6848C9.08936 13.8372 8.86742 13.9233 8.63597 13.9233H8.63338C8.40021 13.9233 8.17827 13.8356 8.01677 13.6816L5.42598 11.2171C5.0935 10.9012 5.10213 10.3963 5.44412 10.0892C5.7861 9.78217 6.33362 9.78935 6.66524 10.106L8.64029 11.9843L12.3382 8.50761C12.6724 8.19255 13.2182 8.18857 13.5593 8.49724C13.8996 8.80591 13.9048 9.31079 13.5706 9.62504H13.5697Z" fill="black" fill-opacity="0.7"/>
</svg>
