<svg width="66" height="65" viewBox="0 0 66 65" fill="none" xmlns="http://www.w3.org/2000/svg">
<path d="M45.5575 45.6307H20.4416C15.1583 45.6307 10.8737 49.8933 10.8737 55.1491C10.8737 60.4049 15.1585 64.6675 20.4416 64.6675H45.5575C50.8409 64.6675 55.1254 60.4049 55.1254 55.1491C55.1254 49.8933 50.8407 45.6307 45.5575 45.6307ZM38.8968 52.2509L30.6541 58.9015C30.5106 59.02 30.3273 59.0868 30.1411 59.0868C29.9273 59.0868 29.7227 59.0017 29.57 58.8529L27.0443 56.4223H27.0474C26.7236 56.1094 26.7206 55.5959 27.0351 55.2738C27.3497 54.9548 27.8658 54.9488 28.1865 55.2617L30.1899 57.2061L37.886 50.9688C38.0509 50.8199 38.2708 50.747 38.4937 50.7622C38.7167 50.7804 38.9213 50.8867 39.0618 51.0599C39.2023 51.2331 39.2664 51.4549 39.2389 51.6736C39.2084 51.8954 39.0923 52.0929 38.9121 52.2235L38.8968 52.2509ZM10.0579 19.7024H55.9412C61.2246 19.7024 65.5091 15.4398 65.5091 10.184C65.5091 4.92814 61.2244 0.665527 55.9412 0.665527H10.0579C4.77453 0.665527 0.490013 4.92814 0.490013 10.184C0.490013 15.4398 4.77477 19.7024 10.0579 19.7024ZM27.6152 7.71064H34.9936V7.71368C35.4456 7.71368 35.809 8.07522 35.809 8.52187C35.809 8.97152 35.4456 9.33309 34.9936 9.33309H27.6152C27.1663 9.33309 26.8028 8.97155 26.8028 8.52187C26.8028 8.07525 27.1662 7.71368 27.6152 7.71368V7.71064ZM27.6152 11.0314L53.2627 11.0344C53.7117 11.0344 54.0751 11.3959 54.0751 11.8456C54.0751 12.2922 53.7117 12.6538 53.2627 12.6538H27.6152C27.1663 12.6538 26.8028 12.2923 26.8028 11.8456C26.8028 11.396 27.1662 11.0344 27.6152 11.0344V11.0314ZM13.3564 9.91634C12.6662 9.06257 12.5318 7.89287 13.0052 6.90548C13.4816 5.91809 14.4833 5.28918 15.5828 5.28918C16.6853 5.28918 17.6869 5.91809 18.1603 6.90548C18.6368 7.89287 18.4993 9.06257 17.8122 9.91634C19.4614 10.7488 20.5027 12.435 20.5058 14.2762C20.5058 14.4888 20.4203 14.6954 20.2676 14.8474C20.1149 14.9993 19.9072 15.0843 19.6934 15.0843H11.4843C11.0323 15.0843 10.6689 14.7228 10.6689 14.2761C10.6628 12.432 11.7042 10.7458 13.3564 9.91634ZM18.7711 13.4649H12.3944C12.7121 11.9641 14.0436 10.8886 15.5828 10.8886C17.1251 10.8886 18.4566 11.9641 18.7711 13.4649ZM15.5858 9.41506H15.5889C15.0941 9.41506 14.6483 9.11732 14.4589 8.66463C14.2696 8.2089 14.3734 7.68634 14.7246 7.34C15.0728 6.9906 15.5981 6.88731 16.0561 7.07568C16.5112 7.26405 16.8105 7.70762 16.8105 8.1998C16.7891 8.85605 16.2485 9.3786 15.5889 9.38163L15.5858 9.41506ZM15.1797 31.0466L11.3835 28.373H19.7818L15.9857 31.0466C15.7444 31.2137 15.4239 31.2137 15.1797 31.0466ZM21.5991 29.1082C21.6021 29.1356 21.6021 29.1629 21.5991 29.1903V34.4798C21.5991 34.6955 21.5136 34.9021 21.3609 35.054C21.2082 35.2059 21.0005 35.291 20.7837 35.291H10.4089C9.95696 35.291 9.59351 34.9294 9.59351 34.4798V29.1902C9.59045 29.1629 9.59045 29.1356 9.59351 29.1082L14.2264 32.35C15.0326 32.9121 16.1015 32.9121 16.9078 32.35L21.5991 29.1082ZM55.9834 22.3118H10.0579C4.77451 22.3118 0.48999 26.5744 0.48999 31.8302C0.48999 37.0893 4.77474 41.3518 10.0579 41.3518H55.9412C61.2246 41.3518 65.5091 37.0892 65.5091 31.8302C65.5091 26.5742 61.2244 22.3118 55.9412 22.3118H55.9834ZM27.6582 29.3604H35.0366C35.4855 29.3604 35.849 29.7219 35.849 30.1716C35.849 30.6182 35.4855 30.9798 35.0366 30.9798H27.6154C27.1665 30.9798 26.803 30.6183 26.803 30.1716C26.803 29.722 27.1664 29.3604 27.6154 29.3604H27.6582ZM23.2268 34.4797C23.2268 35.8226 22.1335 36.9103 20.7836 36.9103H10.4089C9.05903 36.9103 7.96574 35.8226 7.96574 34.4797V29.1902C7.96574 27.8473 9.05903 26.7597 10.4089 26.7597H20.7836C22.1335 26.7597 23.2268 27.8473 23.2268 29.1902V34.4797ZM53.2627 34.2853H27.6152C27.1662 34.2853 26.8028 33.9237 26.8028 33.4771C26.8028 33.0274 27.1662 32.6659 27.6152 32.6659H53.2627C53.7117 32.6659 54.0751 33.0274 54.0751 33.4771C54.0751 33.9237 53.7117 34.2853 53.2627 34.2853Z" fill="#043668"/>
</svg>
