<svg width="61" height="60" viewBox="0 0 61 60" fill="none" xmlns="http://www.w3.org/2000/svg">
<path d="M7.74675 0C3.51671 0 0.0800781 3.43663 0.0800781 7.66667V52.3333C0.0800781 56.5634 3.51671 60 7.74675 60H52.4134C56.6434 60 60.0801 56.5634 60.0801 52.3333V7.66667C60.0801 3.43663 56.6434 0 52.4134 0H7.74675ZM48.9902 16.6667C49.1914 16.6595 49.3901 16.7133 49.5603 16.8209C49.7304 16.9286 49.8641 17.085 49.9439 17.2699C50.0237 17.4548 50.0458 17.6594 50.0074 17.857C49.9689 18.0547 49.8717 18.2361 49.7285 18.3776L25.4212 43.0352C25.3282 43.1296 25.2173 43.2045 25.095 43.2557C24.9727 43.3068 24.8415 43.3332 24.709 43.3332C24.5764 43.3332 24.4452 43.3068 24.3229 43.2557C24.2007 43.2045 24.0898 43.1296 23.9967 43.0352L10.3249 29.1654C10.2298 29.0725 10.1542 28.9615 10.1025 28.8391C10.0508 28.7166 10.024 28.5851 10.0237 28.4522C10.0234 28.3192 10.0496 28.1876 10.1008 28.0649C10.152 27.9422 10.2272 27.831 10.3219 27.7377C10.4165 27.6444 10.5289 27.5709 10.6523 27.5215C10.7757 27.4721 10.9077 27.4478 11.0406 27.4501C11.1736 27.4523 11.3047 27.481 11.4264 27.5345C11.5481 27.5881 11.6579 27.6653 11.7493 27.7617L24.709 40.9076L48.304 16.974C48.4841 16.7862 48.7302 16.6759 48.9902 16.6667Z" fill="#043668"/>
</svg>
