<svg width="23" height="20" viewBox="0 0 23 20" fill="none" xmlns="http://www.w3.org/2000/svg">
<path d="M20.2124 17.3406H1.88705C1.1389 17.3406 0.465317 17.0141 7.62939e-06 16.4948V17.3766C7.62939e-06 18.4178 0.845832 19.2636 1.88705 19.2636H20.2124C21.2536 19.2636 22.102 18.4178 22.102 17.3766V16.4922C21.6367 17.0115 20.9631 17.3406 20.2124 17.3406Z" fill="black" fill-opacity="0.7"/>
<path d="M20.2124 14.7722H1.88705C1.1389 14.7722 0.465317 14.4456 7.62939e-06 13.9263V14.8081C7.62939e-06 15.8494 0.845832 16.6978 1.88705 16.6978H20.2124C21.2536 16.6978 22.102 15.8494 22.102 14.8081V13.9237C21.6367 14.443 20.9631 14.7722 20.2124 14.7722Z" fill="black" fill-opacity="0.7"/>
<path d="M11.0506 5.68054C10.0441 5.68054 9.22511 6.4995 9.22511 7.50627C9.22511 8.51278 10.0441 9.33174 11.0506 9.33174C12.0574 9.33174 12.8763 8.51278 12.8763 7.50627C12.8763 6.4995 12.0574 5.68054 11.0506 5.68054Z" fill="black" fill-opacity="0.7"/>
<path d="M20.2124 0.881653H1.88705C0.845824 0.881653 0 1.73002 0 2.77124V12.2399C0 13.2811 0.845824 14.1295 1.88705 14.1295H20.2124C21.2536 14.1295 22.102 13.2811 22.102 12.2399V2.7713C22.102 1.73007 21.2536 0.881653 20.2124 0.881653ZM19.928 9.63445C19.928 9.81194 19.7841 9.95582 19.6066 9.95582C18.6757 9.95582 17.9184 10.713 17.9184 11.644C17.9184 11.8215 17.7746 11.9653 17.5971 11.9653H4.50433C4.32685 11.9653 4.18296 11.8215 4.18296 11.644C4.18296 10.713 3.42575 9.95582 2.49481 9.95582C2.31733 9.95582 2.17344 9.81194 2.17344 9.63445V5.37767C2.17344 5.20018 2.31733 5.05629 2.49481 5.05629C3.42575 5.05629 4.18296 4.29908 4.18296 3.36814C4.18296 3.19066 4.32685 3.04677 4.50433 3.04677H17.5971C17.7746 3.04677 17.9184 3.19066 17.9184 3.36814C17.9184 4.29908 18.6757 5.05629 19.6066 5.05629C19.7841 5.05629 19.928 5.20018 19.928 5.37767V9.63445Z" fill="black" fill-opacity="0.7"/>
<path d="M17.2978 3.68951H4.80361C4.66126 4.71812 3.8448 5.53432 2.81619 5.67694V9.33518C3.8448 9.47779 4.66126 10.294 4.80361 11.3226H17.2978C17.4402 10.294 18.2566 9.47779 19.2852 9.33518V5.67694C18.2566 5.53432 17.4402 4.71812 17.2978 3.68951ZM5.69337 7.82753H5.0032C4.82571 7.82753 4.68183 7.68365 4.68183 7.50616C4.68183 7.32868 4.82571 7.18479 5.0032 7.18479H5.69337C5.87086 7.18479 6.01474 7.32868 6.01474 7.50616C6.01474 7.6837 5.87086 7.82753 5.69337 7.82753ZM11.0506 9.97437C9.68957 9.97437 8.58237 8.86717 8.58237 7.50616C8.58237 6.14516 9.68957 5.03769 11.0506 5.03769C12.4116 5.03769 13.519 6.14516 13.519 7.50616C13.519 8.86717 12.4116 9.97437 11.0506 9.97437ZM17.0982 7.82753H16.408C16.2306 7.82753 16.0867 7.68365 16.0867 7.50616C16.0867 7.32868 16.2306 7.18479 16.408 7.18479H17.0982C17.2757 7.18479 17.4196 7.32868 17.4196 7.50616C17.4196 7.6837 17.2757 7.82753 17.0982 7.82753Z" fill="black" fill-opacity="0.7"/>
<path d="M19.3245 11.5497C19.357 11.4711 19.357 11.3827 19.3245 11.3041C19.3082 11.2647 19.2847 11.2292 19.255 11.1995L17.9012 9.84566C17.7756 9.72011 17.5723 9.72011 17.4467 9.84566C17.3212 9.97121 17.3212 10.1746 17.4467 10.3001L18.2522 11.1055H10.4446C10.2671 11.1055 10.1232 11.2494 10.1232 11.4269C10.1232 11.6043 10.2671 11.7482 10.4446 11.7482H18.2522L17.4467 12.5537C17.3212 12.6792 17.3212 12.8826 17.4467 13.0081C17.5095 13.0709 17.5916 13.1023 17.6739 13.1023C17.7563 13.1023 17.8384 13.0709 17.9011 13.0081L19.255 11.6543C19.2847 11.6246 19.3082 11.589 19.3245 11.5497Z" fill="black" fill-opacity="0.7"/>
<path d="M3.84983 9.04003H11.6572C11.8347 9.04003 11.9785 8.89614 11.9785 8.71866C11.9785 8.54117 11.8347 8.39729 11.6572 8.39729H3.84972L4.65522 7.59164C4.78076 7.46609 4.78076 7.26274 4.65522 7.13719C4.52967 7.01164 4.32632 7.01164 4.20077 7.13719L2.84692 8.49125C2.81724 8.52093 2.79371 8.55649 2.77739 8.59587C2.7449 8.67441 2.7449 8.76286 2.77739 8.8414C2.79371 8.88078 2.81724 8.91634 2.84692 8.94601L4.20077 10.2999C4.26352 10.3626 4.34561 10.394 4.42797 10.394C4.51032 10.394 4.59241 10.3627 4.65516 10.2999C4.78071 10.1743 4.78071 9.97097 4.65516 9.84542L3.84983 9.04003Z" fill="black" fill-opacity="0.7"/>
</svg>
